<svg xmlns="http://www.w3.org/2000/svg" xmlns:xlink="http://www.w3.org/1999/xlink" width="99" height="78" version="1.1" viewBox="0 0 99 78"><title>folder</title><defs><path id="path-1" d="M0,71.4078766 C0,72.7293076 1.06689453,73.8005391 2.395841,73.8005391 L92.604159,73.8005391 C93.9273454,73.8005391 95,72.7271155 95,71.409858 L95,11.9717352 C95,9.32566043 92.8503479,7.18059299 90.1974057,7.18059299 L37.0054529,7.18059299 C35.6772046,7.18059299 33.9190405,6.35688767 33.0707209,5.33141187 L29.93464,1.54041735 C29.2308622,0.689668338 27.7711628,0 26.667753,0 L4.79709613,0 C2.14773309,0 0,2.14888707 0,4.79958433 L0,71.4078766 Z"/><filter id="filter-2" width="107.4%" height="109.5%" x="-3.7%" y="-3.4%" filterUnits="objectBoundingBox"><feOffset dx="0" dy="1" in="SourceAlpha" result="shadowOffsetOuter1"/><feGaussianBlur in="shadowOffsetOuter1" result="shadowBlurOuter1" stdDeviation="1"/><feColorMatrix in="shadowBlurOuter1" type="matrix" values="0 0 0 0 0 0 0 0 0 0 0 0 0 0 0 0 0 0 0.348307292 0"/></filter><path id="path-3" d="M0,71.4068072 C0,72.7288288 1.06689453,73.8005391 2.395841,73.8005391 L92.604159,73.8005391 C93.9273454,73.8005391 95,72.7238516 95,71.4068072 L95,16.5584292 C95,13.9128554 92.8600015,11.7681941 90.1911295,11.7681941 L4.80887055,11.7681941 C2.15300468,11.7681941 0,13.9215021 0,16.5584292 L0,71.4068072 Z"/><linearGradient id="linearGradient-5" x1="50%" x2="50%" y1="0%" y2="98.984%"><stop offset="0%" stop-color="#FFF" stop-opacity=".303"/><stop offset="12.801%" stop-color="#ECF6FF" stop-opacity=".102"/><stop offset="91.709%" stop-color="#29639F" stop-opacity=".131"/><stop offset="100%" stop-color="#0E4F92" stop-opacity=".135"/></linearGradient></defs><g id="Page-1" fill="none" fill-rule="evenodd" stroke="none" stroke-width="1"><g id="Add-Project" transform="translate(-202.000000, -196.000000)"><g id="Project" transform="translate(184.000000, 197.000000)"><g id="folder" transform="translate(20.000000, 0.000000)"><g id="Path-99"><use fill="#000" fill-opacity="1" filter="url(#filter-2)" xlink:href="#path-1"/><use fill="#367AE3" fill-rule="evenodd" xlink:href="#path-1"/></g><mask id="mask-4" fill="#fff"><use xlink:href="#path-3"/></mask><use id="Mask" fill="#468CF8" xlink:href="#path-3"/><rect id="Rectangle-34" width="99.61" height="2.394" x="-1.203" y="66.62" fill="url(#linearGradient-5)" mask="url(#mask-4)"/><rect id="Rectangle-34" width="99.61" height="2.394" x="-1.203" y="69.013" fill="url(#linearGradient-5)" mask="url(#mask-4)"/><rect id="Rectangle-34" width="99.61" height="2.394" x="-1.203" y="71.407" fill="url(#linearGradient-5)" mask="url(#mask-4)"/></g></g></g></g></svg>